<svg width="30" height="30" viewBox="0 0 30 30" fill="white" xmlns="http://www.w3.org/2000/svg">
<path d="M13.9918 8.35211C13.9918 8.35211 13.3064 9.00132 13.2946 10.9017V12.8887H10.8115V15.698H13.2946V22.9573H16.1577V15.698H18.6212L18.9659 12.8887H16.1577V10.9017C16.1655 10.6814 16.2634 9.70167 17.4149 9.72135H19.0912V7.07337H16.5807C16.5807 7.07337 15.0023 7.03402 13.9957 8.34817L13.9918 8.35211Z" fill="white"/>
<path d="M25.3422 24.3344C24.9309 24.4564 24.7038 24.9168 24.508 25.2709C24.3317 25.5935 23.991 25.9712 23.991 26.349C23.991 26.4709 24.1163 26.5693 24.2338 26.5339C24.598 26.4316 24.8683 26.0027 25.1307 25.747C25.4205 25.4637 25.8083 25.1174 25.8161 24.6925C25.8161 24.4525 25.5733 24.2636 25.3383 24.3305L25.3422 24.3344Z" fill="white"/>
<path d="M29.7326 16.0678C31.5107 8.85173 24.0888 1.55307 17.3366 0.270392C13.6236 -0.4339 9.76187 0.23498 6.59726 2.30851C3.87914 4.08301 1.09445 7.24642 0.753704 10.5869C0.745871 10.6616 0.76937 10.7207 0.800703 10.7718C-1.34167 16.292 0.992616 23.2327 5.68861 26.7384C10.3454 30.2126 18.0024 31.4284 22.9569 27.8007C23.3759 27.4938 23.0274 26.884 22.5495 27.1082C22.3694 27.1909 22.1892 27.2735 22.013 27.3561C21.9229 27.1987 21.7349 27.0964 21.4999 27.2105C18.2021 28.7804 13.6236 27.9856 10.365 26.821C9.99686 26.6912 9.7462 27.2774 10.0987 27.4505C11.8337 28.2965 13.7215 28.7922 15.6563 28.8945C16.4632 28.9378 17.2739 28.9063 18.0807 28.8237C16.8509 29.1345 15.5819 29.2762 14.215 29.1542C11.4382 28.9024 8.98638 27.8637 6.69126 26.3213C4.00056 24.5153 2.16368 22.3159 1.29419 19.1682C0.538291 16.4416 0.499125 13.5693 1.33336 10.8702C1.36861 10.8426 1.40386 10.8112 1.42344 10.7679C1.56835 10.4925 1.70935 10.221 1.85035 9.95342C1.02395 12.0899 0.78112 14.4585 1.1532 16.717C1.85427 21.0017 4.25905 23.8307 7.79574 26.1561C8.21873 26.4354 8.64564 25.7193 8.19523 25.4793C5.05412 23.8071 2.56317 20.0024 2.03443 16.5242C1.45086 12.684 2.84125 9.07994 5.11679 6.02276C5.31262 5.76308 4.90137 5.47585 4.67813 5.68439C4.30605 6.03456 3.96139 6.41229 3.64023 6.80968C4.16114 6.02276 4.74471 5.28306 5.44578 4.59451C5.2852 4.86599 5.5437 5.27519 5.86486 5.06666C6.69126 4.53549 7.49024 3.96891 8.34798 3.48102C8.95896 3.13477 9.60912 2.85935 10.2358 2.54065C10.3376 2.57213 10.4551 2.58 10.5922 2.54458C15.1433 1.38388 19.6748 1.88357 23.2193 5.22404C23.3564 5.35388 23.5248 5.29486 23.6109 5.17682C23.5796 5.34208 23.6697 5.53881 23.889 5.53881C24.2728 5.53881 24.2728 4.94468 23.889 4.94468C23.7793 4.94468 23.7049 4.9919 23.6579 5.06272C23.6658 4.99583 23.6462 4.92501 23.5874 4.85812C22.4046 3.60299 20.9124 2.55639 19.2714 1.82455C24.0653 3.58725 28.0523 7.89956 28.6281 12.8768C28.2717 11.2872 27.6098 9.74882 26.6424 8.35991C26.3956 8.00973 25.8512 8.31269 26.0588 8.69828C27.3474 11.0669 27.9544 13.6559 28.0406 16.3393C28.1307 19.1407 27.0458 21.5329 25.5614 23.8425C25.4087 24.0786 25.7611 24.3658 25.9531 24.1691C26.0431 24.2163 26.1528 24.2163 26.2468 24.1297C28.3892 22.1231 29.9558 19.1171 29.7443 16.1071C29.7443 16.0914 29.7365 16.0756 29.7326 16.0599V16.0678Z" fill="white"/>
<path d="M8.92367 26.5141C8.82967 26.7344 8.955 26.9548 9.17433 27.0295C9.33491 27.0846 9.47982 27.1397 9.64824 27.1633C9.93806 27.1987 10.0477 26.8013 9.87148 26.6243C9.7579 26.5062 9.60515 26.4236 9.46807 26.3331C9.27616 26.2033 9.00591 26.3174 8.91975 26.518L8.92367 26.5141Z" fill="white"/>
</svg>
