<svg width="30" height="30" viewBox="0 0 30 30" fill="none" xmlns="http://www.w3.org/2000/svg">
<path d="M18.1785 7.07617H12.1117C9.42104 7.07617 7.24341 9.26745 7.24341 11.9662V18.0601C7.24341 20.7628 9.42495 22.9502 12.1117 22.9502H18.1785C20.8692 22.9502 23.0469 20.7589 23.0469 18.0601V11.9662C23.0469 9.26352 20.8653 7.07617 18.1785 7.07617ZM21.5311 17.4739C21.5311 19.6573 19.7687 21.4277 17.595 21.4277H12.6914C10.5177 21.4277 8.75521 19.6573 8.75521 17.4739V12.5485C8.75521 10.3651 10.5177 8.59472 12.6914 8.59472H17.595C19.7687 8.59472 21.5311 10.3651 21.5311 12.5485V17.4739Z" fill="white"/>
<path d="M15.3586 10.8569C13.0596 10.8569 11.1953 12.7296 11.1953 15.0389C11.1953 17.3482 13.0596 19.2208 15.3586 19.2208C17.6577 19.2208 19.522 17.3482 19.522 15.0389C19.522 12.7296 17.6577 10.8569 15.3586 10.8569ZM15.3586 17.5527C13.9761 17.5527 12.852 16.4276 12.852 15.0389C12.852 13.6501 13.9722 12.521 15.3586 12.521C16.7451 12.521 17.8614 13.6462 17.8614 15.0389C17.8614 16.4315 16.7412 17.5527 15.3586 17.5527Z" fill="white"/>
<path d="M19.232 9.72754C18.6485 9.72754 18.1746 10.2036 18.1746 10.7897C18.1746 11.3759 18.6485 11.8519 19.232 11.8519C19.8156 11.8519 20.2895 11.3759 20.2895 10.7897C20.2895 10.2036 19.8156 9.72754 19.232 9.72754Z" fill="white"/>
<path d="M25.338 24.331C24.9268 24.453 24.6996 24.9133 24.5038 25.2673C24.3276 25.5899 23.9868 25.9676 23.9868 26.3453C23.9868 26.4672 24.1121 26.5656 24.2296 26.5302C24.5939 26.4279 24.8641 25.9991 25.1265 25.7434C25.4164 25.4601 25.8041 25.1139 25.8119 24.689C25.8119 24.449 25.5691 24.2602 25.3341 24.3271L25.338 24.331Z" fill="white"/>
<path d="M29.7326 16.0657C31.5107 8.85057 24.0888 1.55286 17.3366 0.270356C13.6236 -0.433843 9.76186 0.234949 6.59726 2.30821C3.87914 4.08641 1.09836 7.24547 0.753705 10.5894C0.745872 10.6642 0.769369 10.7232 0.800702 10.7743C-1.34167 16.2938 0.992619 23.2335 5.68861 26.7388C10.3454 30.2126 18.0024 31.4282 22.9529 27.801C23.372 27.4941 23.0234 26.8844 22.5456 27.1086C22.3655 27.1912 22.1853 27.2738 22.009 27.3565C21.919 27.1991 21.731 27.0968 21.496 27.2109C18.1982 28.7806 13.6197 27.9859 10.3611 26.8214C9.99294 26.6916 9.74228 27.2778 10.0948 27.4509C11.8298 28.2967 13.7176 28.7924 15.6524 28.8947C16.4592 28.9379 17.27 28.9065 18.0768 28.8239C16.847 29.1347 15.578 29.2763 14.2111 29.1543C11.4342 28.9025 8.98246 27.8639 6.68734 26.3218C3.99664 24.5161 2.15976 22.3169 1.29028 19.1696C0.534374 16.4433 0.49521 13.5715 1.32944 10.8727C1.36469 10.8451 1.39994 10.8137 1.41952 10.7704C1.56444 10.495 1.70543 10.2236 1.84643 9.95605C1.02003 12.0922 0.777202 14.4606 1.14928 16.7187C1.85035 21.0029 4.25514 23.8315 7.79182 26.1566C8.21481 26.4359 8.64172 25.7199 8.19131 25.4799C5.05021 23.8079 2.55925 20.0037 2.03051 16.5259C1.44694 12.6863 2.83733 9.08268 5.11287 6.02591C5.3087 5.76626 4.89746 5.47907 4.67421 5.68758C4.30213 6.03771 3.95748 6.41538 3.63632 6.81272C4.15722 6.02591 4.7408 5.2863 5.44187 4.59784C5.28128 4.86929 5.53978 5.27843 5.86094 5.06993C6.68734 4.53883 7.48633 3.97232 8.34406 3.48449C8.95505 3.1383 9.6052 2.86291 10.2319 2.54425C10.3337 2.57572 10.4512 2.58359 10.5883 2.54818C15.1393 1.38763 19.6708 1.88726 23.2154 5.22729C23.3524 5.35711 23.5208 5.2981 23.607 5.18008C23.5757 5.34531 23.6658 5.54201 23.8851 5.54201C24.2689 5.54201 24.2689 4.94797 23.8851 4.94797C23.7754 4.94797 23.701 4.99518 23.654 5.06599C23.6618 4.99911 23.6462 4.9283 23.5835 4.86142C22.4007 3.60645 20.9085 2.55999 19.2674 1.82825C24.0613 3.59071 28.0484 7.90246 28.6242 12.8791C28.2678 11.2897 27.6059 9.75147 26.6385 8.36275C26.3917 8.01261 25.8473 8.31554 26.0549 8.70108C27.3434 11.0694 27.9505 13.658 28.0367 16.341C28.1268 19.1421 27.0419 21.534 25.5575 23.8433C25.4047 24.0794 25.7572 24.3666 25.9491 24.1699C26.0392 24.2171 26.1489 24.2171 26.2429 24.1305C28.3853 22.1241 29.9519 19.1185 29.7404 16.1089C29.7404 16.0932 29.7326 16.0775 29.7286 16.0617L29.7326 16.0657Z" fill="white"/>
<path d="M8.91976 26.5106C8.82576 26.7309 8.95109 26.9513 9.17042 27.026C9.331 27.0811 9.47591 27.1362 9.64433 27.1598C9.93415 27.1952 10.0438 26.7978 9.86757 26.6208C9.75399 26.5028 9.60125 26.4202 9.46417 26.3297C9.27225 26.1998 9.002 26.3139 8.91584 26.5146L8.91976 26.5106Z" fill="white"/>
</svg>
