<svg width="30" height="30" viewBox="0 0 30 30" fill="none" xmlns="http://www.w3.org/2000/svg">
<path d="M17.6304 6.54904C16.0559 5.99434 14.2856 5.9314 12.6915 6.44676C12.2333 6.59625 11.775 6.79689 11.3599 7.03293C9.86766 7.88269 8.72011 9.25568 8.25012 10.9237C8.12479 11.3683 8.05036 11.8325 8.00728 12.2889C7.90153 13.4022 8.14437 14.4998 8.64961 15.4912C8.72794 15.6486 8.82977 15.7902 8.90418 15.9515C9.08043 16.3291 9.35068 16.7029 9.67967 16.9547C9.83242 17.0727 10.0204 17.1789 10.2202 17.1632C10.4982 17.1435 10.5687 16.876 10.6432 16.6439C10.7254 16.3882 10.7567 16.1206 10.8116 15.8571C10.8625 15.6171 10.8664 15.4755 10.7215 15.263C9.55043 13.595 9.95384 10.8962 11.3951 9.54287C12.6994 8.31938 14.1837 7.96138 15.8405 8.19742C17.3209 8.40986 18.6369 9.38157 19.2166 10.7821C19.4516 11.3565 19.5299 12.1315 19.5377 12.7452C19.5495 13.6225 19.4124 14.4093 19.0717 15.2315C18.7818 15.9318 18.3471 16.6124 17.7361 17.0766C16.8392 17.7572 14.9553 18.0523 14.5754 16.636C14.4814 16.2898 14.4697 15.8335 14.5402 15.4833C14.7164 14.5942 15.0572 13.7484 15.2608 12.8672C15.3705 12.399 15.441 11.923 15.3117 11.447C15.1629 10.8805 14.8104 10.5146 14.2268 10.4359C13.6041 10.3494 13.0205 10.5461 12.6602 11.03C11.9082 12.0449 11.8103 13.2016 12.1824 14.3975C12.2607 14.6532 12.2881 14.8735 12.2255 15.1411C11.869 16.5888 11.5596 18.0483 11.1915 19.4921C10.9408 20.4717 10.8546 21.4828 10.9016 22.4899C10.9134 22.7692 10.9212 23.0525 10.9839 23.3279C11.027 23.5128 11.0936 23.7764 11.2737 23.8708C11.5205 24.0045 11.732 23.6859 11.8495 23.5128C12.3116 22.8282 12.6719 22.069 12.9422 21.29C13.1184 20.7865 13.2555 20.2672 13.3926 19.7479C13.4396 19.5669 13.702 18.6266 13.7882 18.2529C14.7007 19.3033 16.2125 19.6967 17.5403 19.2876C17.8144 19.205 18.0847 19.1066 18.351 18.9925C18.8641 18.7683 19.3458 18.4772 19.761 18.0995C20.9438 17.0176 21.5861 15.6525 21.8877 14.0985C22.2754 12.0843 21.9229 10.2038 20.654 8.58689C19.8824 7.60337 18.7975 6.95818 17.6343 6.55297L17.6304 6.54904Z" fill="white"/>
<path d="M25.338 24.331C24.9268 24.453 24.6996 24.9133 24.5038 25.2673C24.3276 25.5899 23.9868 25.9676 23.9868 26.3453C23.9868 26.4672 24.1121 26.5656 24.2296 26.5302C24.5939 26.4279 24.8641 25.9991 25.1265 25.7434C25.4164 25.4601 25.8041 25.1139 25.8119 24.689C25.8119 24.449 25.5691 24.2602 25.3341 24.3271L25.338 24.331Z" fill="white"/>
<path d="M29.7326 16.0657C31.5107 8.85057 24.0888 1.55286 17.3366 0.270356C13.6236 -0.433843 9.76187 0.23495 6.59727 2.30821C3.87915 4.08641 1.09837 7.24547 0.753705 10.5894C0.745872 10.6642 0.76937 10.7232 0.800702 10.7743C-1.34167 16.2938 0.99262 23.2335 5.68861 26.7388C10.3454 30.2126 18.0024 31.4282 22.9529 27.801C23.372 27.4941 23.0235 26.8844 22.5456 27.1086C22.3655 27.1912 22.1853 27.2738 22.009 27.3565C21.919 27.1991 21.731 27.0968 21.496 27.2109C18.1982 28.7806 13.6197 27.9859 10.3611 26.8214C9.99295 26.6916 9.74229 27.2778 10.0948 27.4509C11.8298 28.2967 13.7176 28.7924 15.6524 28.8947C16.4592 28.938 17.27 28.9065 18.0768 28.8239C16.847 29.1347 15.578 29.2763 14.2111 29.1543C11.4342 28.9025 8.98246 27.8639 6.68734 26.3218C3.99664 24.516 2.15976 22.3169 1.29028 19.1696C0.534374 16.4433 0.49521 13.5715 1.32944 10.8727C1.36469 10.8451 1.39995 10.8137 1.41953 10.7704C1.56444 10.495 1.70544 10.2236 1.84644 9.95605C1.02004 12.0922 0.777209 14.4606 1.14928 16.7187C1.85035 21.0029 4.25514 23.8315 7.79182 26.1566C8.21481 26.4359 8.64172 25.7199 8.19131 25.4799C5.0502 23.8079 2.55926 20.0037 2.03052 16.5259C1.44695 12.6863 2.83733 9.08268 5.11287 6.0259C5.3087 5.76626 4.89746 5.47907 4.67422 5.68757C4.30214 6.03771 3.95747 6.41538 3.63631 6.81272C4.15722 6.0259 4.7408 5.2863 5.44187 4.59784C5.28129 4.86929 5.53978 5.27843 5.86094 5.06992C6.68735 4.53882 7.48633 3.97232 8.34406 3.48449C8.95505 3.13829 9.60521 2.86291 10.2319 2.54425C10.3337 2.57572 10.4512 2.58359 10.5883 2.54819C15.1393 1.38763 19.6708 1.88726 23.2154 5.22729C23.3524 5.35711 23.5209 5.2981 23.607 5.18008C23.5757 5.34531 23.6658 5.54202 23.8851 5.54202C24.2689 5.54202 24.2689 4.94797 23.8851 4.94797C23.7754 4.94797 23.701 4.99518 23.654 5.06599C23.6619 4.99911 23.6423 4.9283 23.5835 4.86142C22.4007 3.60645 20.9085 2.55999 19.2674 1.82825C24.0613 3.59071 28.0484 7.90246 28.6242 12.8791C28.2678 11.2897 27.6059 9.75147 26.6385 8.36275C26.3917 8.01261 25.8473 8.31554 26.0549 8.70108C27.3435 11.0694 27.9505 13.658 28.0367 16.341C28.1268 19.1421 27.0419 21.534 25.5575 23.8433C25.4047 24.0794 25.7572 24.3666 25.9491 24.1698C26.0392 24.2171 26.1489 24.2171 26.2429 24.1305C28.3853 22.1241 29.9519 19.1185 29.7404 16.1089C29.7404 16.0932 29.7326 16.0775 29.7287 16.0617L29.7326 16.0657Z" fill="white"/>
<path d="M8.91976 26.5106C8.82576 26.7309 8.95109 26.9513 9.17042 27.026C9.331 27.0811 9.47592 27.1362 9.64433 27.1598C9.93416 27.1952 10.0438 26.7978 9.86757 26.6208C9.75399 26.5028 9.60124 26.4202 9.46416 26.3297C9.27225 26.1998 9.00201 26.3139 8.91584 26.5146L8.91976 26.5106Z" fill="white"/>
</svg>
